<svg version="1.1" xmlns="http://www.w3.org/2000/svg" viewBox="116.0 135.1 1370.9 409.6">
<rect x="116.0" y="135.1" width="1370.9" height="409.6" fill="#202124" />
<polyline points="150.4 172.5,149.2 170.8,148.7 173.6,148.7 175.9,149.2 179.3,150.4 182.7,151.5 187.2,153.8 193.4,154.3 195.7,155.4 197.3,157.7 202.4,158.8 204.7,160.5 206.4,165.0 209.2,166.7 206.9,167.9 203.6,169.0 199.0,170.1 193.4,170.7 190.0,171.3 187.2,172.4 181.0,172.9 175.9,174.1 172.5,175.2 170.8" style="fill:none;stroke:#ffffff;stroke-width:2"/>
<polyline points="191.6 165.2,191.6 169.1,191.0 175.3,191.0 178.2,191.6 205.2,192.1 205.8" style="fill:none;stroke:#ffffff;stroke-width:2"/>
<polyline points="193.8 188.3,195.0 185.5,198.3 182.7,200.6 180.4,202.3 178.2,204.6 175.9,206.8 174.8" style="fill:none;stroke:#ffffff;stroke-width:2"/>
<polyline points="193.8 185.5,195.5 187.2,197.2 190.6,198.3 194.0,200.0 197.3,201.7 200.2,203.4 202.4,204.0 203.6" style="fill:none;stroke:#ffffff;stroke-width:2"/>
<polyline points="218.1 204.1,220.4 203.6,223.2 203.6,230.5 204.1,232.8 204.1,235.0 204.7" style="fill:none;stroke:#ffffff;stroke-width:2"/>
<polyline points="250.3 175.9,248.6 178.2,248.0 182.7,247.5 186.6,248.0 190.6,248.6 193.4,249.7 196.2,251.4 197.9,253.7 198.5,257.6 197.3,259.3 195.7" style="fill:none;stroke:#ffffff;stroke-width:2"/>
<polyline points="264.4 172.5,264.4 175.3,263.8 192.8,263.8 190.0,264.4 181.5,265.5 178.2,267.8 174.2,271.2 172.5,273.4 172.5,275.7 173.1,276.8 175.3,277.4 178.7,277.9 185.5,277.4 188.9,276.8 191.1,276.8 195.1" style="fill:none;stroke:#ffffff;stroke-width:2"/>
<polyline points="307.3 169.1,309.0 167.4,307.9 160.7,306.7 157.8,305.0 155.0,302.8 152.8,300.5 151.6,297.7 152.2,295.4 153.9,293.2 157.3,292.1 159.5,291.5 161.8,290.9 166.9,290.9 169.7,291.5 178.2,292.1 183.8,292.6 186.6,293.7 189.4,296.0 196.8,296.6 201.3,297.7 206.4,297.1 209.2,296.6 210.3" style="fill:none;stroke:#ffffff;stroke-width:2"/>
<polyline points="305.6 184.9,303.3 184.4,300.0 183.8,297.7 183.8,294.9 184.4,292.6 184.4,290.9 184.9" style="fill:none;stroke:#ffffff;stroke-width:2"/>
<polyline points="320.8 181.5,319.1 180.4,316.9 181.0,314.1 181.5,311.8 184.4,310.7 186.1,309.6 191.7,309.6 195.1,310.7 197.9,312.4 199.6,314.6 200.7,318.0 200.2,323.1 197.9,324.8 196.8,328.2 194.0,329.3 192.3,330.4 188.3,330.4 185.5,327.6 182.1,324.8 181.0,321.4 180.4,319.7 181.0" style="fill:none;stroke:#ffffff;stroke-width:2"/>
<polyline points="249.2 156.7,247.5 157.8,249.2 159.5,249.2 157.3,247.5 156.1" style="fill:none;stroke:#ffffff;stroke-width:2"/>
<polyline points="342.3 201.3,346.2 200.7,349.1 200.7,353.0 201.3" style="fill:none;stroke:#ffffff;stroke-width:2"/>
<polyline points="377.3 151.6,375.6 153.9,375.0 160.1,375.0 165.2,375.6 179.3,376.2 182.1,378.4 187.2,380.7 191.1,385.2 195.1,386.9 196.2,389.7 197.3,393.1 197.9,395.4 197.9,399.9 197.3,400.4 194.5" style="fill:none;stroke:#ffffff;stroke-width:2"/>
<polyline points="394.8 175.9,392.0 175.3,389.1 175.3,381.8 175.9,379.0 177.0,376.7 177.6,375.0 178.7" style="fill:none;stroke:#ffffff;stroke-width:2"/>
<polyline points="404.4 181.5,404.9 183.8,407.2 191.1,407.8 193.4,407.8 195.7,408.3 199.6,408.3 201.9,407.8 196.8,407.8 194.5,408.9 189.4,409.5 187.2,411.7 181.5,414.0 179.8,416.8 179.8,419.6 180.4,422.4 182.1,424.1 183.2,425.3 184.4" style="fill:none;stroke:#ffffff;stroke-width:2"/>
<polyline points="426.4 196.8,428.7 196.2,430.3 195.1,432.6 194.0,434.9 192.3,439.9 187.8,441.1 186.1,442.2 181.0,441.1 178.2,437.7 178.7,434.9 183.2,433.2 188.9,432.6 191.7,432.6 194.0,435.4 196.8,440.5 197.9,447.3 196.2" style="fill:none;stroke:#ffffff;stroke-width:2"/>
<polyline points="453.5 191.1,454.6 189.4,457.4 187.8,459.1 186.6,460.8 184.9,462.0 183.2,462.5 179.8,461.4 178.2,459.1 177.6,456.9 178.7,453.5 182.1,451.8 184.9,452.4 190.0,454.1 192.3,456.9 194.5,458.6 195.7,460.8 196.2,464.2 197.3,468.2 197.9,471.6 197.3" style="fill:none;stroke:#ffffff;stroke-width:2"/>
<polyline points="489.1 175.9,491.3 175.9,489.1 174.8,486.8 175.3,484.0 176.5,480.6 178.2,478.3 180.4,477.2 184.9,482.3 186.6,486.8 188.9,489.1 190.6,491.3 191.7,494.7 194.5,496.4 197.3,496.4 202.4,495.3 204.1,490.2 207.5,486.2 208.6,481.2 208.6" style="fill:none;stroke:#ffffff;stroke-width:2"/>
<polyline points="275.7 245.3,273.4 244.8,271.2 244.8,268.9 246.5,267.8 249.3,268.3 251.5,270.6 253.2,273.4 253.8,275.7 253.8,278.5 252.1,279.1 249.8,277.4 247.0,275.1 245.3,273.4 244.2,269.5 244.8,269.5 247.6,270.6 251.0,272.3 252.7,275.1 253.2,277.9 251.5,278.5 248.2,277.4 246.5,274.6 244.8,272.3 245.3,271.2 247.0,270.6 250.4,271.2 252.7,273.4 252.1,275.1 251.0,274.6 248.2,272.3 246.5,270.6 247.6,270.0 249.8,271.7 252.1,274.0 249.3,272.3 247.0,270.0 248.7,271.2 250.4,274.0 251.0,276.2 249.3,274.6 247.6,273.4 247.0" style="fill:none;stroke:#068e12;stroke-width:2"/>
<polyline points="232.8 227.3,232.8 225.0,231.1 227.8,231.1 230.7,231.7 234.0,234.5 236.9,236.7 237.4,240.7 236.3,241.2 235.7" style="fill:none;stroke:#068e12;stroke-width:2"/>
<polyline points="241.2 226.1,241.8 228.4,242.9 231.2,244.1 233.5,244.1 230.7,244.6 227.8,246.3 225.6,249.2 224.4,252.5 226.7,254.2 230.1,254.2 232.3,254.2 235.7" style="fill:none;stroke:#068e12;stroke-width:2"/>
<polyline points="268.9 224.4,265.5 225.0,265.5 227.3,266.7 229.0,269.5 231.2,270.6 232.9,272.3 234.6,271.2 236.3,267.8 236.9,266.7 236.9" style="fill:none;stroke:#068e12;stroke-width:2"/>
<polyline points="283.0 218.2,280.8 219.4,279.6 222.2,279.1 224.4,279.6 227.8,280.8 231.8,281.9 233.5,282.5 234.0" style="fill:none;stroke:#068e12;stroke-width:2"/>
<polyline points="289.2 227.8,287.5 225.6,284.1 225.0,281.3 225.6,280.2 226.1" style="fill:none;stroke:#068e12;stroke-width:2"/>
<polyline points="297.1 227.3,292.6 227.8,290.4 229.0,289.2 231.2,289.8 233.5,292.1 233.5,294.3 231.8,295.4 230.1,297.1 227.3,299.4 228.4,301.1 231.2,302.8 232.9,305.0 234.0" style="fill:none;stroke:#068e12;stroke-width:2"/>
<polyline points="305.0 225.0,306.2 228.4,307.3 230.1,309.0 232.3,309.6 229.5,309.6 226.1,310.1 223.9,314.6 225.6,315.8 227.3,317.5 231.2,318.0 232.9" style="fill:none;stroke:#068e12;stroke-width:2"/>
<polyline points="331.0 222.7,329.3 221.1,325.4 221.1,323.7 223.3,323.1 225.6,323.1 227.8,324.2 230.1,325.9 231.2,328.7 232.9,331.0 233.5,334.4 232.9,336.6 232.3" style="fill:none;stroke:#068e12;stroke-width:2"/>
<polyline points="336.6 229.0,339.5 229.0,341.2 227.8,343.4 225.6,344.5 222.7,342.3 223.3,341.7 226.7,341.2 229.5,342.3 231.8,345.1 232.9,347.9 232.9" style="fill:none;stroke:#068e12;stroke-width:2"/>
<polyline points="368.8 223.3,369.4 227.3,369.4 229.5,369.9 232.3,371.1 233.5" style="fill:none;stroke:#068e12;stroke-width:2"/>
<polyline points="376.7 221.6,377.9 225.0,378.4 227.8,379.0 230.1,379.0 232.3,380.1 229.5,382.4 224.4,384.1 223.3,386.3 222.2,388.6 224.4,389.7 227.3,390.3 230.1,390.8 232.3,390.8 234.6" style="fill:none;stroke:#068e12;stroke-width:2"/>
<polyline points="403.3 217.7,401.0 217.1,398.2 217.1,396.5 218.2,395.4 219.9,394.8 222.2,394.8 228.4,395.9 231.2,397.6 234.0,399.9 238.6,401.6 240.8,402.7 243.1,402.7 244.2" style="fill:none;stroke:#068e12;stroke-width:2"/>
<polyline points="403.3 227.8,400.4 228.4,397.0 229.0,395.4 229.0" style="fill:none;stroke:#068e12;stroke-width:2"/>
<polyline points="418.5 227.3,415.7 226.7,413.4 227.3,409.5 229.0,408.3 232.3,408.9 234.6,410.6 236.3,413.4 237.4,416.2 237.4,419.1 236.3,421.3 234.6,422.4 231.2,421.3 229.5,419.1 229.0,416.2 229.0" style="fill:none;stroke:#068e12;stroke-width:2"/>
<polyline points="369.9 213.2,368.3 213.7" style="fill:none;stroke:#068e12;stroke-width:2"/>
<polyline points="273.4 248.7,272.3 252.1,271.2 253.8,270.6 256.1,268.9 260.0,267.8 264.0,265.5 269.0,264.4 271.3,263.3 274.1,260.4 279.2,258.7 282.0,257.6 284.8,254.8 289.9,252.5 295.0,249.7 300.1,247.5 304.6,245.8 308.5,243.5 311.4,241.8 313.6,242.4 314.8" style="fill:none;stroke:#068e12;stroke-width:2"/>
<polyline points="273.4 247.0,275.7 247.6,276.8 249.8,277.4 252.7,279.1 259.4,280.8 265.6,281.3 269.0,282.5 272.4,283.6 279.8,285.3 289.4,285.8 292.2,287.0 297.3,287.5 299.5,289.2 305.2,290.9 310.2,290.4 311.4" style="fill:none;stroke:#068e12;stroke-width:2"/>
<polyline points="275.1 248.2,277.9 248.7,279.1 250.4,280.8 252.1,283.0 254.9,285.3 259.4,287.5 262.3,289.8 265.6,314.6 301.2,316.3 303.5,320.8 309.1,322.0 310.8,324.2 314.8,325.4 316.5" style="fill:none;stroke:#068e12;stroke-width:2"/>
<polyline points="326.5 314.8,325.9 312.5,323.7 314.2,323.7 316.5,324.8 318.1,327.0 317.6,329.3 315.9,330.4 313.1,329.3 311.4,327.6 312.5,326.5 314.8,327.0 317.0,329.3 314.8,328.7 311.9,326.5 311.9,325.9 314.8,326.5 316.5" style="fill:none;stroke:#068e12;stroke-width:2"/>
<polyline points="293.2 309.1,288.1 309.7,285.3 311.4,284.7 313.6,288.1 313.6,290.4 312.5,294.3 310.2,292.1 309.1,289.2 310.8,291.5 311.9,293.2 310.8,291.5 309.7,290.4 311.4" style="fill:none;stroke:#068e12;stroke-width:2"/>
<polyline points="242.9 316.5,242.4 313.1,240.7 314.8,240.7 317.0,243.5 317.0,245.2 315.9,246.3 313.6,246.3 311.4,245.8 314.8,245.8 317.6,248.0 317.6,250.3 316.5,252.0 314.8,251.4 311.9,249.2 310.2,246.9 309.7,244.1 310.2,242.9 311.9,243.5 314.8,246.3 316.5,248.6 315.3,249.7 313.6,247.5 311.4,244.1 311.4,241.2 313.1,240.7 313.6" style="fill:none;stroke:#068e12;stroke-width:2"/>
<polyline points="195.0 335.6,195.0 333.4,194.4 330.6,191.6 327.7,188.8 327.2,187.1 328.3,185.4 330.6,184.2 333.4,184.2 336.2,184.8 339.0,186.5 340.7,189.3 342.4,192.7 342.4,197.8 341.3,201.2 336.8,201.7 334.5,201.7 332.3,200.6 322.7,198.9 319.3,197.2 316.5,195.5 315.3,195.0 317.6,195.5 320.4,197.8 326.0,200.0 330.0,201.2 332.3,203.4 335.6,206.3 339.0,207.4 339.6" style="fill:none;stroke:#068e12;stroke-width:2"/>
<polyline points="213.0 339.6,214.7 338.5,215.8 335.1,215.8 332.3,215.3 328.9,213.6 325.5,210.8 324.9,209.6 326.6,210.2 331.7,210.8 334.0,211.9 335.6,214.2 338.5,215.8 339.6,218.1 340.7,219.8 340.7" style="fill:none;stroke:#068e12;stroke-width:2"/>
<polyline points="222.1 324.9,223.2 327.2,225.4 332.3,228.3 337.3,231.1 337.3,232.8 334.5,233.3 331.7,233.3 328.9,232.8 323.2" style="fill:none;stroke:#068e12;stroke-width:2"/>
<polyline points="237.3 322.7,237.9 324.9,238.4 329.4,239.6 334.0,240.1 336.8,241.2 338.5,241.8 339.0" style="fill:none;stroke:#068e12;stroke-width:2"/>
<polyline points="248.0 323.8,245.8 324.9,244.1 326.0,242.9 327.7,242.4 330.0,242.9 332.3,244.6 334.0,246.9 334.5,250.3 335.1,252.5 334.0" style="fill:none;stroke:#068e12;stroke-width:2"/>
<polyline points="253.7 331.1,257.1 331.7,261.0 330.0,262.1 328.3,263.8 325.5,263.3 323.2,259.9 325.5,258.2 327.7,256.5 330.6,255.9 332.8,257.1 335.1,258.7 336.2,261.6 336.2,262.7 335.6" style="fill:none;stroke:#068e12;stroke-width:2"/>
<polyline points="326.5 326.6,324.8 325.5,322.0 326.6,319.1 328.9,318.0 332.3,318.0 335.6,318.6 338.5,319.7 340.2,322.0 340.7,324.2 339.6,325.4 337.9,331.0 328.3,332.1 323.8,333.3 319.8,333.8 317.0,333.8 314.8,332.7 318.1,332.1 321.0,331.0 330.0,331.6 332.3,332.7 334.5,334.4 336.2,336.1 336.8" style="fill:none;stroke:#068e12;stroke-width:2"/>
<polyline points="338.3 334.5,340.6 331.7,341.7 329.4,342.9 326.6,343.4 324.4,340.0 323.2,338.9 327.2,338.9 330.0,340.0 333.4,341.7 335.6,344.5 337.3,349.1 336.8" style="fill:none;stroke:#068e12;stroke-width:2"/>
<polyline points="349.1 323.8,350.2 326.0,350.8 328.3,351.9 330.0,354.1 332.3,355.8 330.0,357.0 326.6,357.5 322.7,358.7 320.4,359.8 318.1" style="fill:none;stroke:#068e12;stroke-width:2"/>
<polyline points="366.6 319.3,367.1 321.5,367.1 324.4,367.7 334.0" style="fill:none;stroke:#068e12;stroke-width:2"/>
<polyline points="379.5 318.1,376.7 318.7,375.6 321.5,373.9 324.9,373.9 327.2,373.3 332.3,373.9 334.5,377.9 335.1,382.4 332.3,384.1 331.1,386.9 328.3,388.6 325.5,390.3 322.1" style="fill:none;stroke:#068e12;stroke-width:2"/>
<polyline points="385.8 326.6,389.1 326.0,392.5 323.8,394.8 321.5,396.5 318.7,397.6 315.9,395.9 313.6,394.2 314.8,393.1 317.0,391.4 322.1,393.1 324.9,398.2 327.7,401.6 329.4,405.5 330.0,408.9 330.0" style="fill:none;stroke:#068e12;stroke-width:2"/>
<polyline points="237.9 346.4,237.3 344.1,235.0 345.8,233.9 349.2,232.8 354.3,231.7 357.1,231.1 359.9,229.4 367.3,226.6 378.5,223.8 384.8,222.6 387.6,220.4 391.5,218.7 394.3,216.4 395.5,215.8 394.9" style="fill:none;stroke:#068e12;stroke-width:2"/>
<polyline points="242.4 343.5,242.4 345.8,244.6 352.6,246.9 359.9,248.6 363.9,252.0 372.9,265.0 406.2" style="fill:none;stroke:#068e12;stroke-width:2"/>
<polyline points="222.6 389.8,222.6 392.7,221.5 395.5,219.8 398.3,218.7 401.7,216.4 405.1,214.7 407.9,211.9 412.4,213.6 414.1,214.2 413.5" style="fill:none;stroke:#068e12;stroke-width:2"/>
<polyline points="237.3 344.1,237.3 341.9,239.6 340.2,241.2 343.0,242.4 345.8,243.5 349.8,244.6 354.8,245.2 361.0,246.3 365.0,249.2 372.9,250.3 375.2,254.8 383.1,255.9 384.8,257.6 388.1,258.2 390.4,258.2 392.1" style="fill:none;stroke:#068e12;stroke-width:2"/>
<polyline points="241.8 352.0,243.5 354.3,244.6 357.1,245.2 359.4,246.3 361.6,249.2 368.4,250.8 371.8,254.2 379.7,258.7 392.1,261.0 399.4,263.3 406.2,264.4 409.0,266.1 413.5,267.2 415.2,268.9 417.5" style="fill:none;stroke:#068e12;stroke-width:2"/>
<polyline points="192.1 433.3,193.3 431.6,189.3 429.9,186.5 429.9,183.7 430.5,181.4 432.2,181.4 435.0,182.5 436.7,184.8 438.9,187.6 440.1,190.4 441.8,192.1 442.9,196.1 445.2,197.8 446.8,197.8 449.7,196.1 451.4,191.0 453.6,188.8 454.2,184.8 454.7,183.1 454.7" style="fill:none;stroke:#068e12;stroke-width:2"/>
<polyline points="198.3 440.1,199.5 441.8,200.6 445.7,201.7 447.4,202.9 449.7,205.1 450.2,205.7 447.4,205.1 445.2,204.0 442.9,203.4 440.6,205.7 442.9,210.8 448.5,212.5 450.2,214.2 451.4,216.4 450.8,218.1 449.7,220.4 446.3,220.4 444.0,218.7 441.8,216.4 438.9,212.5 436.7,209.1 435.0" style="fill:none;stroke:#068e12;stroke-width:2"/>
<polyline points="226.6 433.9,223.2 435.6,222.6 437.8,222.6 441.2,223.8 444.0,225.4 446.3,227.7 448.0,230.0 448.0,232.2 446.8,233.9 444.6,234.5 441.2,234.5 437.8,233.9 435.0,235.0 437.8,236.2 440.1,237.3 441.8,238.4 442.9" style="fill:none;stroke:#068e12;stroke-width:2"/>
<polyline points="241.2 432.7,243.5 435.0,244.6 438.9,245.2 441.2,246.3 444.0,247.5 449.7,248.6 453.6,248.6 457.0,246.9 459.3,244.1 455.3,242.4 450.2,241.8 444.0,241.8 440.6,242.4 431.6,243.5 428.8,245.8 424.8,247.5 423.1,251.4 422.6,253.7 423.1,255.9 424.3,259.3 427.7,261.0 431.6,259.9 436.1,258.2 437.8,255.9 438.9,250.3 441.2" style="fill:none;stroke:#068e12;stroke-width:2"/>
<polyline points="196.7 462.7,195.0 461.5,192.1 462.1,189.9 464.9,191.6 468.3,193.8 470.0,196.7 471.7,200.0 473.4,202.9 475.1,204.6 476.8,204.0 480.1,199.5 482.4,194.4 483.0,192.1 483.0,187.1 482.4" style="fill:none;stroke:#068e12;stroke-width:2"/>
<polyline points="202.9 466.6,203.4 469.4,204.6 472.8,205.7 476.8,208.5 479.6,210.8 480.1,213.0 478.5,214.7 476.2,215.8 474.5,216.4 471.1,217.5 467.2,217.5 470.0,218.1 473.4,218.7 476.2,219.8 478.5" style="fill:none;stroke:#068e12;stroke-width:2"/>
<polyline points="224.3 466.6,225.4 468.9,226.0 472.8,226.6 477.3,226.6 480.7,227.7 484.1,228.3 486.4,226.0 485.2,225.4 481.8,224.9 479.6,224.3 474.5,224.9 468.9,227.1 460.4,230.5 459.3,233.3 461.5,234.5 463.2,235.6 466.6,234.5 470.0,232.2 472.8,228.8 473.9,225.4 474.5" style="fill:none;stroke:#068e12;stroke-width:2"/>
<polyline points="236.2 460.4,237.3 464.3,237.9 467.7,237.9 470.0,238.4 472.2,239.6 477.3,240.1 483.0,240.1 489.2,239.6 493.7,238.4 489.2,236.7 480.7,236.2 473.9,236.7 458.7,237.9 457.0,242.4 455.9,246.3 459.3,247.5 462.7,247.5 464.9,244.6 470.0,241.2 472.8" style="fill:none;stroke:#068e12;stroke-width:2"/>
<polyline points="252.0 462.7,249.2 464.9,248.6 467.7,248.0 471.7,249.7 477.3,253.1 480.7,255.4 480.7,257.6 479.6,259.3 476.8,259.3 471.7,258.7 469.4,256.5 465.5,253.1 462.7,250.8 461.5" style="fill:none;stroke:#068e12;stroke-width:2"/>
<polyline points="260.4 461.5,260.4 463.8,261.0 468.9,262.1 472.2,263.3 476.2,263.8 478.5,263.8 476.2,263.3 473.4,262.7 468.9,262.7 466.6,263.3 460.4,264.4 458.7,268.3 459.8,270.0 462.7,271.2 465.5" style="fill:none;stroke:#068e12;stroke-width:2"/>
<polyline points="271.2 445.2,273.4 451.4,274.6 454.2,279.1 463.8,280.2 467.2,280.8 470.0,281.9 472.8,282.5 475.6,283.0 479.0,283.0 480.1" style="fill:none;stroke:#068e12;stroke-width:2"/>
<polyline points="285.3 458.1,282.5 459.8,279.6 461.0" style="fill:none;stroke:#068e12;stroke-width:2"/>
<polyline points="241.8 341.3,244.1 342.4,245.2 344.7,248.0 348.6,251.4 352.0,253.1 353.1,255.4 354.8,261.0 359.9,264.4 362.7,276.8 373.5,283.6 379.1,289.8 384.8,295.4 391.0,300.5 396.0,302.8 398.9,309.0 406.2,310.7 407.9,313.5 411.3" style="fill:none;stroke:#068e12;stroke-width:2"/>
<polyline points="310.7 405.1,309.0 406.2,309.0 408.5,311.2 410.7,313.5 411.3,315.8 410.2,315.2 407.9,313.5 403.9,311.2 401.7,309.6 400.6,307.9 402.8,308.4 406.2,309.0 409.0,310.1 411.3,311.8 413.0,314.6 411.3,315.2 409.0,314.1 406.8,312.9 403.9,310.1 402.3,305.6 402.8,305.0 405.1,305.0 407.9,307.3 409.6,310.1 409.6,312.4 408.5,314.6 406.2,313.5 403.4" style="fill:none;stroke:#068e12;stroke-width:2"/>
<polyline points="263.3 408.5,262.7 405.6,262.1 403.4,259.3 406.2,258.7 408.5,259.3 411.3,261.6 414.1,265.5 414.7,267.8 414.1,268.9 412.4,268.9 409.6,268.3 406.8,267.2 405.1,265.0 403.9,262.1 405.6,262.1 407.9,263.3 410.7,265.0 412.4,267.2 413.5,270.0 413.5,271.7 411.8,271.7 409.0,269.5 405.6,265.0 402.3,262.1 402.3,260.4 403.9,260.4 406.8,262.7 409.6,265.0 410.7,268.3 410.7,269.5 407.3,268.3 405.1" style="fill:none;stroke:#068e12;stroke-width:2"/>
<polyline points="209.1 413.0,210.8 411.3,211.3 409.0,208.5 409.0,205.1 411.3,205.1 415.2,206.8 417.5,209.1 419.2,211.9 419.8,214.7 418.6,215.8 416.4,216.4 410.7,214.7 409.0,211.3 409.0,209.1 410.2,207.4 411.8,207.4 414.1,208.5 415.8,210.8 416.9,214.2 417.5,215.8 415.2,214.2 411.8,212.5 410.7" style="fill:none;stroke:#068e12;stroke-width:2"/>
<polyline points="315.8 427.7,315.8 425.4,311.8 425.4,310.1 426.5,308.4 428.2,307.9 434.4,309.6 438.4,310.7 440.6,311.8 442.3,315.2 445.2,317.5 445.7,323.7 446.8,327.0 445.7,329.3 442.9,331.0 438.9,331.6 436.7,331.6 434.4,331.0 429.9,328.7 426.5,325.9 423.7,322.5 423.1,318.6 423.1,315.8 424.3,312.4 427.1" style="fill:none;stroke:#068e12;stroke-width:2"/>
<polyline points="323.1 438.9,322.5 436.1,324.2 437.2,326.5 441.2,328.2 444.6,330.4 447.4,332.7 451.9,334.4 454.2,335.0 454.7" style="fill:none;stroke:#068e12;stroke-width:2"/>
<polyline points="340.6 435.0,338.3 435.6,338.3 437.8,338.9 440.1,340.0 444.0,340.6 446.3,342.9 449.1,344.5 450.8,346.8 449.1,347.4 446.8,347.4 444.0,347.9 440.6,347.9 436.7,345.7 437.2,345.7 439.5,346.8 442.3,347.9 444.6,349.6 446.3,350.8 447.4" style="fill:none;stroke:#068e12;stroke-width:2"/>
<polyline points="358.7 447.4,360.9 446.8,362.6 445.2,366.0 444.0,368.3 442.3,369.4 440.6,369.9 438.4,370.5 435.6,370.5 433.3,367.7 431.6,365.4 432.7,362.6 438.4,363.2 442.9,364.9 445.2,367.7 446.8,369.9 446.8,372.2 446.3,375.0 445.2" style="fill:none;stroke:#068e12;stroke-width:2"/>
<polyline points="379.0 429.9,380.7 432.2,381.2 435.0,382.4 440.1,382.9 442.9,384.6 445.7,386.9 445.7,388.0 444.0,390.8 439.5,391.4 433.9,390.8 431.0,389.7 428.2,388.6 432.2,389.1 435.6,390.8 438.9,393.7 442.3,395.9 444.6,398.7 446.8" style="fill:none;stroke:#068e12;stroke-width:2"/>
<polyline points="406.1 437.8,408.9 436.7,411.2 433.9,411.7 431.6,411.7 429.3,410.6 427.1,406.6 426.5,404.4 427.7,403.3 429.3,402.7 434.4,403.3 438.4,405.5 441.8,407.2 442.9,409.5 444.0,413.4 444.6,417.4 444.6,420.8 442.9" style="fill:none;stroke:#068e12;stroke-width:2"/>
<polyline points="435.4 418.1,432.6 419.8,430.9 420.9,429.2 422.6,425.3 426.0,423.6 428.2,424.1 431.0,427.0 433.9,430.9 436.7,432.6 438.4,434.9 440.1,437.7 442.9,438.8 445.7,438.3 448.0,436.0 450.2,431.5 452.5" style="fill:none;stroke:#068e12;stroke-width:2"/>
<polyline points="420.8 345.8,422.4 344.7,425.8 344.7,445.0 345.2,450.7 345.2,453.5 345.8,459.1 345.8,468.7 346.4,474.4 346.4,494.7 346.9,499.8 346.9,502.6 347.5,509.9 348.1,514.5 348.6,522.9 349.2,525.2 349.8,530.3 350.3,533.6 350.3,541.0 350.9,544.4 350.9,554.0 351.4,556.2 351.4,559.6 352.0,555.1 350.9,552.8 350.9,546.1 349.8,541.5 349.8,536.5 349.2,533.6 348.6,530.8 348.6,525.7 348.1,522.9 348.1,517.3 347.5,514.5 347.5,505.4 346.9,502.6 346.9,486.8 346.4,483.4 346.4,480.0 345.8,476.6 345.8,446.7 346.4,439.4 346.9,436.6 346.9,423.6 347.5,420.2 347.5" style="fill:none;stroke:#da0e0e;stroke-width:2"/>
<polyline points="560.7 353.7,559.0 352.6,556.8 351.4,555.1 350.3,552.8 349.2,550.0 347.5,546.6 345.2,543.8 343.5,541.0 341.3,537.6 339.6,534.8 337.3,530.3 334.5,527.4 331.7,528.6 330.0,530.3 332.3,532.5 334.0,536.5 336.2,539.9 338.5,547.2 343.0,551.1 345.8,552.8 346.9,557.9 349.8,560.2 350.9,562.4 352.6,560.7 354.3,558.5 355.4,552.3 357.7,548.9 358.8,544.9 360.5,541.0 362.7,538.7 363.9,526.9 369.5,522.4 371.2,518.4 372.9,516.1 374.0" style="fill:none;stroke:#da0e0e;stroke-width:2"/>
<polyline points="616.1 163.5,618.9 165.2,620.0 169.1,621.7 173.1,623.4 178.2,625.7 184.4,626.8 187.2,629.0 194.5,630.7 197.9,631.3 200.2,633.0 201.3,634.7 199.6,636.4 198.5,636.9 196.2,637.5 193.4,640.9 183.8,641.5 180.4,643.2 171.4,643.2 169.1,643.7 166.9,643.7 163.5,643.7 162.3" style="fill:none;stroke:#ffffff;stroke-width:2"/>
<polyline points="654.4 158.4,654.4 160.7,655.6 175.3,655.6 178.7,656.1 184.4,656.1 187.2,656.7 197.9" style="fill:none;stroke:#ffffff;stroke-width:2"/>
<polyline points="657.8 180.4,659.5 179.3,662.3 178.2,665.2 176.5,667.4 173.6,669.1 171.4,671.4 168.0" style="fill:none;stroke:#ffffff;stroke-width:2"/>
<polyline points="657.8 181.0,658.4 183.2,660.1 185.5,662.9 189.4,665.7 192.3,669.7 197.3,671.9 200.2" style="fill:none;stroke:#ffffff;stroke-width:2"/>
<polyline points="687.2 200.7,689.4 201.3,691.7 201.3,696.2 200.7,698.5 200.7,702.4 200.2,703.6 200.2" style="fill:none;stroke:#ffffff;stroke-width:2"/>
<polyline points="744.2 155.0,745.9 156.7,747.6 155.6,747.0 153.3,746.5 150.5,744.8 148.2,741.9 146.0,735.7 147.7,732.9 151.1,731.8 153.3,731.2 155.6,730.1 161.2,730.1 164.0,730.6 173.1,731.2 175.9,732.9 181.0,735.2 186.1,738.6 192.8,740.8 197.3" style="fill:none;stroke:#ffffff;stroke-width:2"/>
<polyline points="745.3 173.6,743.6 172.5,739.7 172.5,731.8 173.1,728.4 174.2" style="fill:none;stroke:#ffffff;stroke-width:2"/>
<polyline points="758.3 176.5,754.9 175.9,751.5 175.9,748.1 176.5,745.9 179.8,745.9 183.2,746.5 186.6,748.1 188.9,750.4 191.7,753.8 192.3,756.0 192.3,758.3 190.6,760.0 187.8,761.1 183.8,761.1 179.8,760.6 176.5,760.0 179.3,760.6 182.7,761.7 186.6,762.8 188.3,765.1 191.1,769.6 194.0,773.0 195.1" style="fill:none;stroke:#ffffff;stroke-width:2"/>
<polyline points="785.4 171.4,783.1 171.9,781.5 173.1,779.2 174.8,776.9 177.0,775.8 178.7,774.7 182.1,774.7 184.4,775.8 186.6,778.1 188.3,783.7 189.4,790.5 190.0" style="fill:none;stroke:#ffffff;stroke-width:2"/>
<polyline points="794.4 151.6,796.1 153.3,796.7 155.6,797.3 159.5,797.8 164.0,798.9 169.7,800.6 175.3,804.6 185.5,806.3 189.4,807.4 191.1" style="fill:none;stroke:#ffffff;stroke-width:2"/>
<polyline points="811.9 170.8,808.5 172.5,805.7 173.1,800.1 173.6" style="fill:none;stroke:#ffffff;stroke-width:2"/>
<polyline points="827.7 169.1,823.8 169.7,820.4 171.4,819.3 173.1,817.0 178.7,817.6 183.8,819.8 187.8,821.5 189.4,827.7 192.3,831.7 192.3,835.6 190.0,837.9 187.2,839.0 183.2,837.9 179.3,835.1 175.3,832.8 173.6,827.7 170.3,825.5 169.1,822.1 167.4" style="fill:none;stroke:#ffffff;stroke-width:2"/>
<polyline points="845.2 168.6,845.2 170.8,846.4 173.1,848.6 178.7,850.9 182.1,852.6 185.5,852.6 182.7,850.9 177.0,850.3 174.8,850.3 170.3,850.9 167.4,853.1 165.7" style="fill:none;stroke:#ffffff;stroke-width:2"/>
<polyline points="869.5 162.9,870.6 165.7,870.6 171.9,871.8 177.0,874.0 185.5" style="fill:none;stroke:#ffffff;stroke-width:2"/>
<polyline points="880.8 178.7,882.5 179.8,885.3 181.5,888.1 181.0,890.4 179.8,894.3 177.6,896.6 174.8,897.2 168.6,893.2 168.0,890.4 170.3,888.1 173.6,886.4 177.0,887.0 181.0,892.1 186.6,894.3 187.2,901.7 187.8" style="fill:none;stroke:#ffffff;stroke-width:2"/>
<polyline points="921.4 162.3,917.5 164.6,914.7 166.3,912.4 168.6,911.3 170.3,913.5 173.1,915.8 174.2,929.3 183.2,932.2 187.2,933.3 190.6,929.9 194.5,927.6 195.7,922.6 196.8,916.9 197.3,914.1 197.3,911.8 196.8" style="fill:none;stroke:#ffffff;stroke-width:2"/>
<polyline points="847.5 165.7,849.8 164.6,851.4 163.5,853.7 162.3,857.7 160.7,859.9 160.1,858.8 161.8,856.5 162.3,854.8 163.5,852.6 165.2,849.8 167.4,850.3 170.8,851.4 173.1,853.1 175.3" style="fill:none;stroke:#ffffff;stroke-width:2"/>
<polyline points="840.7 159.0,839.6 156.7,839.6 154.4,841.3 158.4,843.0 161.2,845.2 165.2,846.4 169.1,847.5 173.6,849.2 177.0,850.9 179.8" style="fill:none;stroke:#ffffff;stroke-width:2"/>
<polyline points="868.9 147.1,867.3 148.2,870.6 147.7,868.9 144.9" style="fill:none;stroke:#ffffff;stroke-width:2"/>
<polyline points="744.2 306.3,746.5 306.3,743.1 305.7,737.4 304.6,734.6 304.6,728.4 303.5,724.4 303.5,712.0 302.3,706.9 302.3,702.4 301.8,691.7 301.2,686.6 301.2,675.9 300.6,670.8 300.1,661.8 299.5,655.6 299.0" style="fill:none;stroke:#068e12;stroke-width:2"/>
<polyline points="653.9 301.8,652.8 300.1,650.5 301.8,650.5 304.0,649.9 306.9,649.4 310.2,649.4 312.5,648.8 315.3,648.2 321.0,647.1 327.2,645.4 341.3,645.4 349.2,644.8 357.1,644.8 360.5,644.3 370.6,644.3 376.3,643.7 378.5,643.2 384.2" style="fill:none;stroke:#068e12;stroke-width:2"/>
<polyline points="638.6 392.7,640.9 392.1,643.2 392.1,645.4 392.7,648.8 393.2,653.3 393.2,655.6 393.8,661.2 393.8,688.9 393.2,699.6 393.2,712.0 392.7,723.9 392.7,736.3 392.1,741.9 392.1,787.7 393.2,793.9 393.8,850.3 397.7,853.1 397.7,864.4 397.7" style="fill:none;stroke:#068e12;stroke-width:2"/>
<polyline points="868.9 394.9,868.4 392.7,868.4 388.1,868.9 385.9,870.1 382.5,870.6 378.5,871.8 374.0,872.3 368.9,872.9 366.7,873.5 363.9,874.0 358.2,875.2 349.2,875.2 345.2,875.7 342.4,875.2 339.6,874.6 337.3" style="fill:none;stroke:#068e12;stroke-width:2"/>
<polyline points="873.5 333.4,872.9 330.6,872.9 327.2,873.5 324.4,874.0 322.1,875.2 319.3,875.7 317.0,876.3 313.1" style="fill:none;stroke:#068e12;stroke-width:2"/>
<polyline points="875.7 311.4,872.3 310.8,868.4 310.2,866.1 310.2,860.5 309.7,858.2 309.1,853.1 309.1,844.7 308.5,841.8 308.5,800.1 307.4,797.3 306.9,790.5 305.7,787.7 304.6" style="fill:none;stroke:#068e12;stroke-width:2"/>
<polyline points="796.7 306.9,795.0 305.2,796.1 302.9,796.7 299.5,796.7 297.3,796.1 286.0,795.6 285.4" style="fill:none;stroke:#068e12;stroke-width:2"/>
<polyline points="798.4 287.7,796.7 286.5,792.2 286.5,788.8 286.0,786.5 286.0,778.6 285.4,772.4 284.8,765.1 283.7,757.7 283.7,754.4 283.1,747.0 283.1,732.3 282.6,730.1 282.6" style="fill:none;stroke:#068e12;stroke-width:2"/>
<polyline points="716.0 281.5,713.1 283.1,712.0 285.4,710.9 288.2,709.8 291.6,709.2 295.0" style="fill:none;stroke:#068e12;stroke-width:2"/>
<polyline points="871.8 357.1,868.4 356.5,866.1 356.0,863.3 355.4,859.9 356.0,857.7 356.5,854.3 357.1,852.0 357.7,848.6 358.8,845.8 360.5,844.1 361.6,843.0 363.3,841.3 364.4,839.6 366.7,837.3 370.1,835.1 375.2,834.5 377.4,833.9 381.4,833.9 384.8,834.5 388.1,834.5 390.4,835.6 393.2" style="fill:none;stroke:#068e12;stroke-width:2"/>
<polyline points="822.7 394.9,821.0 393.8,819.8 392.1,818.7 389.8,818.1 387.0,818.7 383.6,821.5 383.1,821.5 380.8,820.4 379.1,819.8 376.9,820.4 374.0,821.5 371.8,820.4 370.1,818.1 368.9,816.4 367.3,816.4 365.0,818.1 363.9,819.8 362.2,822.1 360.5,823.8 358.2,824.9 356.5,827.2 354.8,830.0 357.1,831.7 359.4,833.9 357.1,835.6 354.8,837.9 353.1,840.2 352.0,842.4 351.4,842.4 349.2,841.8 346.4,841.8 344.1,843.5 342.4,845.8 343.0,849.2 341.9,851.4 341.3,855.4 340.2,857.7 339.0,859.3 337.9,861.6 339.6,862.2 343.0,862.7 345.8,865.0 346.9,868.9 346.4,871.8 346.4,872.9 346.4" style="fill:none;stroke:#068e12;stroke-width:2"/>
<polyline points="726.7 302.9,728.4 304.6,727.8 306.9,727.3 310.2,725.6 314.8,725.0 317.0,723.9 319.8,722.2 322.7,721.1 325.5,719.4 328.3,717.7 331.7,715.4 334.5,713.1 337.9,711.5 339.6,710.3 341.3,704.7 349.2,703.6 350.9,700.7 353.1,697.3 354.8,694.0 356.0,691.1 357.1,687.7 358.2,681.0 359.9,678.2 360.5,674.8 361.0,668.0 361.0,663.5 361.6,661.2 362.2,657.8 362.2,645.4 361.6" style="fill:none;stroke:#068e12;stroke-width:2"/>
<polyline points="644.8 380.8,647.1 380.2,649.4 381.4,652.2 381.9,655.6 380.8,658.4 380.2,660.7 380.2,665.2 379.7,668.6 379.7,671.4 380.2,673.1 377.4,673.6 374.6,673.6 371.8,676.5 371.2,681.0 369.5,682.7 368.4,684.9 367.8,688.3 366.7,690.6 365.6,693.4 365.0,695.1 367.3,696.8 368.9,699.0 368.9,700.7 367.3,709.2 359.9,710.9 357.7,712.6 356.0,716.0 354.8,714.8 353.1,713.1 350.9,716.0 350.3,718.2 349.2,719.4 347.5,720.5 345.2,721.1 342.4,722.7 340.7,723.9 339.0,725.6 337.3,727.3 335.1,729.5 335.1,738.0 334.5,738.6 331.1,739.1 327.2,739.7 324.9,739.7 322.7,740.2 320.4,740.2 317.0,740.8 314.2,741.9 312.5,740.2 310.8,739.7 308.0,739.1 305.7,739.1 303.5,739.1 302.3" style="fill:none;stroke:#068e12;stroke-width:2"/>
<polyline points="747.0 271.3,744.8 269.0,743.1 267.9,741.9 266.2,741.4 264.0,741.9 260.6,743.1 258.9,744.2 256.6,748.1 254.9,750.4 253.8,752.7 253.8,753.8 256.1,751.5 255.5,751.0 253.2,751.5 250.4,753.2 248.2,756.0 245.9,758.3 244.8,762.3 243.1,764.5 243.1,767.3 244.2,769.0 245.9,769.0 243.6,770.7 241.4,774.1 238.0,776.4 236.3,780.3 234.0,783.1 232.9,785.4 232.3,787.7 232.3,789.9 232.9" style="fill:none;stroke:#068e12;stroke-width:2"/>
<polyline points="799.5 235.7,801.2 234.6,803.5 234.6,804.6 236.9,805.2 240.8,804.0 243.1,802.3 244.8,800.6 245.9,796.1 247.0,797.3 248.7,800.1 249.8,802.3 251.0,802.9 253.2,801.8 255.5,800.1 258.3,798.4 260.0,796.7 261.1,793.9 262.8,790.5 264.0,787.7 264.5,785.4 264.5,782.6 263.4,784.8 262.3,786.5 264.5,784.8 266.8,782.0 267.9,779.8 268.5,774.7 269.6,772.4 270.2,769.6 270.7,767.3 271.9,764.0 271.9,760.6 270.7,757.7 270.2" style="fill:none;stroke:#068e12;stroke-width:2"/>
<polyline points="852.0 319.8,854.3 319.8,856.5 320.4,854.3 321.5,851.4 321.5,847.5 321.0,843.5 321.0,832.8 320.4,825.5 319.8,821.5 319.8,818.1 319.3,809.7 318.7,797.3 318.1,793.3 317.6,789.9 317.6,780.9 317.0,778.6 317.0,770.7 317.6,769.0 317.6" style="fill:none;stroke:#068e12;stroke-width:2"/>
<polyline points="768.5 318.7,766.8 321.0,765.6 324.4,764.5 326.6,764.5 330.6,765.1 333.4" style="fill:none;stroke:#068e12;stroke-width:2"/>
<polyline points="762.3 333.4,765.6 334.0,770.2 334.5,773.0 334.5,780.3 335.1,784.8 335.1,789.4 335.6,794.4 335.6,852.6 334.5,852.0 334.0" style="fill:none;stroke:#068e12;stroke-width:2"/>
<polyline points="852.6 332.8,854.8 331.7,854.8 329.4,855.4 326.0,855.4 324.9" style="fill:none;stroke:#068e12;stroke-width:2"/>
<polyline points="667.4 219.9,668.6 222.2,669.1 227.3,669.1 231.2,668.6 253.2,669.1 256.6,669.1 260.0,670.2 266.8,671.4 276.9,671.4 279.2,670.8 284.3,670.8 286.5,671.4 289.9,670.8 292.7,670.2 296.1,669.7 298.4,669.7 301.2,669.1 301.8" style="fill:none;stroke:#068e12;stroke-width:2"/>
<polyline points="666.3 219.4,668.6 219.4,671.4 219.9,673.6 220.5,676.5 220.5,683.2 219.9,685.5 220.5" style="fill:none;stroke:#068e12;stroke-width:2"/>
<polyline points="685.5 223.9,687.2 221.6,687.2 219.4,687.7 221.6,688.3 226.1,688.3 228.4,689.4 281.5,689.4 285.4,690.0 289.4,690.0 292.7,690.6 302.3,690.0 304.0" style="fill:none;stroke:#068e12;stroke-width:2"/>
<polyline points="643.7 410.2,644.3 413.0,645.4 417.5,646.5 421.4,648.8 431.0,648.8 433.9,649.4 436.1,647.1 435.0,646.5 430.5,646.0 421.4,646.0 417.5,647.7 414.1,649.9 411.8,652.8 410.2,655.6 409.6,659.0 410.2,661.8 414.1,664.0 423.1,664.6 427.7,665.2 431.6,665.2 435.0,665.2 438.9" style="fill:none;stroke:#068e12;stroke-width:2"/>
<polyline points="684.9 418.6,686.6 415.8,685.5 414.1,682.7 413.5,680.4 413.5,677.6 414.7,675.3 422.0,675.3 427.1,676.5 431.6,677.6 433.3,679.3 435.0,686.1 438.9,688.3 438.9,692.8 437.8,696.2 434.4,698.5 429.9,699.0 427.1,697.9 422.0,695.1 418.1,692.8 416.9,687.2 415.8,682.1 415.8,679.3 416.4" style="fill:none;stroke:#068e12;stroke-width:2"/>
<polyline points="720.5 414.7,722.7 416.9,723.9 423.1,724.4 426.0,725.6 428.8,726.7 433.9,727.3 438.4,727.8 441.2,728.4 442.3" style="fill:none;stroke:#068e12;stroke-width:2"/>
<polyline points="733.5 414.7,734.0 416.9,735.2 420.3,738.0 427.1,741.4 434.4,739.7 429.9,738.6 424.8,738.0 416.4,739.1 413.0,742.5 410.2,745.3 410.7,748.1 411.8,750.4 414.7,751.5 416.4,753.8 423.7,756.0 432.2,758.3 440.1,758.9 443.5,760.0 445.7,761.1 445.7" style="fill:none;stroke:#068e12;stroke-width:2"/>
<polyline points="758.3 399.4,761.1 402.8,762.8 408.5,764.0 411.3,765.1 415.2,767.3 422.6,768.5 426.0,771.3 432.2,772.4 435.0,773.0 437.8,774.7 443.5,775.8 445.2,775.8 446.3" style="fill:none;stroke:#068e12;stroke-width:2"/>
<polyline points="778.6 417.5,767.9 418.1" style="fill:none;stroke:#068e12;stroke-width:2"/>
<polyline points="788.2 429.9,790.5 429.9,792.7 428.2,793.9 426.5,795.0 424.3,795.0 418.6,792.2 415.2,789.4 414.7,786.5 415.8,784.3 419.2,783.7 426.5,784.3 428.8,787.1 432.7,788.8 434.4,791.0 436.1,795.6 437.8,800.6 437.8,807.4 436.7,810.2 434.4,811.4 432.7,811.4 428.8,810.8 426.5,807.4 420.3,804.6 418.1,804.0 417.5" style="fill:none;stroke:#068e12;stroke-width:2"/>
<polyline points="807.4 418.1,805.7 416.4,804.0 414.1,806.9 416.9,809.1 422.0,814.8 436.7,815.9 441.8,814.8 437.2,813.6 428.8,813.6 425.4,814.8 412.4,816.4 410.2,818.7 409.6,821.5 410.2" style="fill:none;stroke:#068e12;stroke-width:2"/>
<polyline points="827.7 411.3,830.0 416.9,831.7 422.0,832.8 427.7,834.5 432.2,836.2 437.2,836.2 431.6,835.6 426.0,835.6 417.5,836.2 415.2,836.2 413.0,837.9 410.2,840.7 409.0,843.0 410.2,846.4 415.2,848.1 420.3,849.2 422.6,850.3 427.7,851.4 433.3,851.4 435.6,852.6 437.8" style="fill:none;stroke:#068e12;stroke-width:2"/>
<polyline points="867.3 414.1,869.5 414.1,866.7 414.1,863.3 414.7,859.9 416.9,857.7 419.8,856.5 423.7,856.5 427.7,857.1 429.9,858.2 433.3,859.3 435.0,863.9 438.4,867.8 440.1,870.6 437.2,870.6 432.7,870.1 426.5,868.9 420.9,867.3 416.9,867.3 422.6,869.5 427.7,871.2 429.9,874.0 433.9,876.8 437.2,878.5 438.4,883.1 440.1,885.3 440.1,886.4 438.9" style="fill:none;stroke:#068e12;stroke-width:2"/>
<polyline points="884.2 396.0,885.3 400.0,885.9 405.1,887.6 411.8,888.7 419.2,890.4 426.0,892.7 431.6,894.9 436.7,897.7 440.1" style="fill:none;stroke:#068e12;stroke-width:2"/>
<polyline points="645.4 458.1,643.7 459.8,644.3 463.2,646.0 468.3,647.1 473.9,648.8 480.1,649.9 484.7,651.6 488.1,653.9 489.7,656.1 490.9,658.4 490.9,660.7 490.3,665.2 485.2,666.9 481.8,670.2 471.1,670.8 464.9,670.8 461.5,670.2 459.3,669.7 455.9" style="fill:none;stroke:#068e12;stroke-width:2"/>
<polyline points="684.4 470.6,683.2 468.9,680.4 466.6,678.7 468.3,678.2 473.4,678.7 477.3,680.4 481.3,683.2 484.7,687.2 486.4,689.4 485.2,692.8 481.8,693.4 479.6,695.1 475.1,695.1 472.8,695.7 468.9,695.1 472.2,695.7 477.9,696.2 480.1,698.5 484.1,700.7 486.9,703.6 489.2,706.9 490.3" style="fill:none;stroke:#068e12;stroke-width:2"/>
<polyline points="710.9 441.2,711.5 443.5,710.9 448.0,710.9 451.9,712.0 457.6,714.8 469.4,716.5 475.1,717.7 477.3,719.4 481.3,720.5 483.0,721.6 485.8,723.3 487.5" style="fill:none;stroke:#068e12;stroke-width:2"/>
<polyline points="728.4 445.7,727.8 449.7,728.4 453.6,729.0 458.7,729.5 461.5,730.1 464.9,730.6 471.1,731.8 475.6,731.8 477.9,732.9 480.7,734.0 482.4,735.2 480.1,736.9 473.9,738.6 469.4,740.8 463.8,741.9 460.4,743.6 458.1,744.2 455.3,741.4 455.9,739.7 458.1,738.6 459.8,738.0 462.1,736.3 466.6,735.7 471.1,735.7 475.1,740.2 481.3,743.6 483.5,747.6 485.2,751.0 486.4,753.8 486.9,756.0 486.9" style="fill:none;stroke:#068e12;stroke-width:2"/>
<polyline points="772.4 467.7,769.0 466.6,765.1 466.6,757.2 470.6,756.0 476.2,757.7 480.1,760.6 483.5,765.6 487.5,769.6 488.6,773.0 488.1,776.9 485.8,778.1 482.4,778.1 477.9,776.9 473.4,775.2 470.0,773.0 468.3,771.9 471.1,775.2 477.3,778.1 480.7,780.3 483.5,783.1 485.2,787.7 487.5,789.9 487.5" style="fill:none;stroke:#068e12;stroke-width:2"/>
<polyline points="793.9 469.4,792.7 467.7,793.3 471.1,795.0 477.9,795.0 480.1,796.1 483.5,796.7 485.8,798.4 483.0,798.4 478.5,798.9 466.6,798.9 464.3,800.1 460.4,801.8 457.6,804.0 457.0,808.5 461.0,811.9 466.0,814.8 472.2,816.4 478.5,817.6 481.3,818.7 486.4,819.3 490.3,818.7 492.6,818.7 494.8" style="fill:none;stroke:#068e12;stroke-width:2"/>
<polyline points="691.1 508.9,688.3 508.4,687.2 506.7,683.2 507.2,681.5 508.4,678.7 510.6,677.6 512.3,674.8 516.3,673.6 518.0,671.9 522.5,671.9 529.3,674.2 531.5,678.7 532.6,683.8 533.2,688.9 533.2,691.7 532.6,696.2 531.5,699.6 529.8" style="fill:none;stroke:#068e12;stroke-width:2"/>
<polyline points="712.6 514.6,710.3 514.0,706.9 514.0,705.2 515.1,703.0 518.5,703.0 521.9,704.1 525.3,705.8 528.1,708.1 529.8,712.0 530.4,717.1 528.7,720.5 525.9,724.4 518.5,724.4 515.7,722.2 514.0,722.2 516.8,724.4 519.7,725.6 521.4,727.8 523.6,731.2 526.4,734.6 528.7,740.8 530.4,742.5 529.8" style="fill:none;stroke:#068e12;stroke-width:2"/>
<polyline points="741.4 497.1,740.2 499.3,740.2 503.9,741.4 508.4,744.8 516.3,746.5 518.5,747.6 521.4,750.4 524.7,752.7 527.6,754.9 528.1" style="fill:none;stroke:#068e12;stroke-width:2"/>
<polyline points="754.4 497.6,754.4 499.9,754.9 507.2,756.6 516.3,758.9 520.8,761.1 524.2,763.4 526.4,766.8 528.1,767.9 528.1" style="fill:none;stroke:#068e12;stroke-width:2"/>
<polyline points="788.2 503.3,785.4 503.9,783.1 505.0,780.3 506.7,778.6 508.9,778.1 511.2,778.6 513.5,781.5 515.1,783.1 516.3,789.4 518.5,793.3 520.2,796.7 521.9,798.9 524.7,797.8 529.3,795.6 530.4,790.5 533.2,787.1 533.8,776.9 534.9" style="fill:none;stroke:#068e12;stroke-width:2"/>
<polyline points="723.3 399.4,721.1 398.3,721.1 400.6,723.9 401.1,722.7 400.0" style="fill:none;stroke:#068e12;stroke-width:2"/>
<polyline points="903.9 383.6,907.3 383.6,910.2 384.2,913.5 384.2,917.5 384.8,922.0 384.8,924.3 385.3,927.1 385.3,933.3 385.9,936.1 386.4,940.1 386.4,946.8 387.0,950.2 387.6,960.4 388.7,963.8 388.7,967.2 389.3,973.4 389.3,1005.0 389.8,1007.2 389.8,1018.5 390.4,1021.4 390.4,1028.7 389.8,1031.5 389.8,1034.3 389.3,1035.5 389.3" style="fill:none;stroke:#da0e0e;stroke-width:2"/>
<polyline points="1040.5 391.5,1037.7 389.8,1036.0 388.7,1031.5 385.9,1028.7 384.2,1024.2 382.5,1020.8 380.8,1017.4 379.7,1011.2 377.4,1008.4 376.3,1006.7 374.6,1005.0 373.5,1003.9 372.3" style="fill:none;stroke:#da0e0e;stroke-width:2"/>
<polyline points="1038.3 392.7,1036.0 392.1,1034.3 393.2,1032.1 394.3,1020.2 400.0,1018.0 401.1,1012.9 403.9,1010.1 405.1,999.9 409.6,994.3 412.4,990.9 414.7,991.4 416.4" style="fill:none;stroke:#da0e0e;stroke-width:2"/>
<polyline points="1070.5 157.8,1072.2 160.1,1072.7 164.0,1073.3 166.9,1075.5 175.9,1076.7 182.1,1077.8 187.2,1079.5 190.6,1080.6 193.4,1083.4 195.7,1086.8 195.7,1090.8 193.4,1093.0 190.6,1094.2 188.9,1095.3 186.6,1097.6 181.0,1098.1 177.6,1099.2 174.2,1099.8 168.0,1100.4 165.2,1100.4 162.9,1100.9 160.1,1102.1 157.3" style="fill:none;stroke:#ffffff;stroke-width:2"/>
<polyline points="1117.3 151.6,1117.9 155.0,1118.4 159.5,1119.6 165.7,1120.1 173.1,1120.1 176.5,1119.6 189.4,1119.6 192.3,1119.0 193.4" style="fill:none;stroke:#ffffff;stroke-width:2"/>
<polyline points="1123.5 173.6,1125.8 173.1,1128.0 171.4,1130.9 169.1,1134.2 166.3,1136.5 163.5,1138.2 161.2,1138.8 160.1" style="fill:none;stroke:#ffffff;stroke-width:2"/>
<polyline points="1124.1 178.7,1124.1 181.5,1126.3 187.2,1127.5 189.4,1128.6 194.0,1130.3 197.9,1131.4 200.7,1132.6 201.9" style="fill:none;stroke:#ffffff;stroke-width:2"/>
<polyline points="1180.5 173.1,1178.8 171.9,1175.5 170.8,1173.2 170.8,1168.1 173.1,1165.3 176.5,1162.5 181.0,1161.3 185.5,1160.8 190.0,1161.9 193.4,1164.7 196.2,1168.1 196.8,1173.8 196.2,1176.0 195.1,1181.1 192.8,1183.9 191.1,1185.0 190.6" style="fill:none;stroke:#ffffff;stroke-width:2"/>
<polyline points="1188.4 183.8,1190.1 182.7,1190.7 186.6,1190.7 189.4,1191.3 192.3,1191.3 194.5,1190.7 192.3,1191.3 186.1,1191.8 183.8,1193.5 179.3,1196.3 177.6,1199.2 177.6,1200.9 178.7,1200.9 179.8" style="fill:none;stroke:#ffffff;stroke-width:2"/>
<polyline points="1204.8 190.6,1207.6 188.3,1211.0 185.5,1213.3 183.8,1215.5 181.5,1217.8 178.2,1216.7 176.5,1215.0 175.3,1212.7 175.9,1209.9 178.2,1208.8 180.4,1206.5 186.1,1205.9 189.4,1206.5 191.7,1209.9 193.4,1215.5 194.0" style="fill:none;stroke:#ffffff;stroke-width:2"/>
<polyline points="1237.5 180.4,1236.4 178.7,1233.6 178.2,1229.6 179.8,1227.4 181.0,1225.1 182.7,1224.0 184.9,1223.4 187.2,1225.1 190.0,1227.4 190.6,1230.2 190.6,1235.9 188.9,1238.1 186.1,1239.8 182.1,1239.8 178.7,1238.7 177.0,1237.5 182.1,1238.1 185.5,1239.8 188.3,1242.1 191.1,1244.9 193.4,1247.7 194.5" style="fill:none;stroke:#ffffff;stroke-width:2"/>
<polyline points="1249.4 154.4,1250.5 157.8,1250.5 163.5,1251.1 168.6,1251.7 171.9,1252.8 177.6,1253.9 182.7,1254.5 187.2,1256.2 192.3,1257.3 194.0" style="fill:none;stroke:#ffffff;stroke-width:2"/>
<polyline points="1263.5 173.6,1259.6 174.2,1256.2 174.8" style="fill:none;stroke:#ffffff;stroke-width:2"/>
<polyline points="1271.4 187.8,1270.8 184.4,1273.7 180.4,1276.5 175.9,1277.6 173.6,1273.1 179.8,1269.7 186.6,1269.2 188.9,1270.8 192.8,1273.7 194.5,1277.1 194.5,1282.1 193.4" style="fill:none;stroke:#ffffff;stroke-width:2"/>
<polyline points="1300.8 173.1,1302.5 175.9,1302.5 179.8,1303.0 182.1,1303.0 187.2,1303.0 198.5" style="fill:none;stroke:#ffffff;stroke-width:2"/>
<polyline points="1309.2 174.2,1310.4 177.0,1312.1 184.4,1312.1 188.3,1312.6 191.7,1312.6 194.0,1313.2 185.5,1314.3 180.4,1316.0 176.5,1317.1 174.8,1319.4 173.6,1323.3 177.0,1325.6 183.8,1326.7 189.4,1327.9 196.8,1327.9 200.2" style="fill:none;stroke:#ffffff;stroke-width:2"/>
<polyline points="1344.2 163.5,1343.7 161.2,1342.0 160.1,1339.7 159.0,1334.1 157.8,1332.4 160.7,1331.8 168.0,1332.4 175.3,1332.4 179.3,1333.5 187.8,1334.6 198.5,1335.8 204.7,1336.3 209.2,1336.9 212.0,1337.5 213.7" style="fill:none;stroke:#ffffff;stroke-width:2"/>
<polyline points="1341.4 183.2,1339.2 183.8,1334.6 184.4,1329.6 184.9" style="fill:none;stroke:#ffffff;stroke-width:2"/>
<polyline points="1353.3 184.9,1351.0 183.8,1347.1 185.5,1344.8 188.3,1344.2 194.0,1344.8 197.3,1347.1 199.6,1349.3 199.6,1352.7 198.5,1355.0 195.7,1356.6 193.4,1357.8 190.0,1357.2 184.9,1354.4 182.1,1351.0 181.0,1347.1 180.4" style="fill:none;stroke:#ffffff;stroke-width:2"/>
<polyline points="1371.9 178.2,1368.5 178.7,1365.7 181.0,1364.0 182.7,1364.0 184.9,1365.7 186.1,1368.5 188.9,1370.8 192.3,1371.9 195.7,1369.6 197.3,1367.4 197.9,1365.7 197.9" style="fill:none;stroke:#ffffff;stroke-width:2"/>
<polyline points="1296.8 152.8,1296.8 155.0,1299.6 155.6,1298.5 153.9,1297.9 153.3" style="fill:none;stroke:#ffffff;stroke-width:2"/>
<polyline points="1097.6 285.4,1097.0 282.6,1096.4 279.2,1097.0 276.9,1097.0 273.0,1097.6 269.0,1097.6 266.8,1098.1 255.5,1099.2 253.8,1100.9 252.7,1103.8 252.7,1105.5 254.4,1107.2 257.2,1108.3 258.9,1108.8 261.1,1111.1 275.2,1111.1 279.8,1110.5 283.7,1110.0 287.1,1109.4 288.8" style="fill:none;stroke:#068e12;stroke-width:2"/>
<polyline points="1109.4 274.7,1106.6 274.1,1104.3 274.1,1099.8 274.1" style="fill:none;stroke:#068e12;stroke-width:2"/>
<polyline points="1123.0 272.4,1120.7 273.6,1120.1 278.1,1120.1 280.3,1120.7 288.8,1120.7 291.1,1120.1 295.6,1119.6 297.8,1119.6 295.0" style="fill:none;stroke:#068e12;stroke-width:2"/>
<polyline points="1121.3 271.3,1121.8 269.0,1124.1 267.9,1126.9 267.3,1130.3 266.8,1134.2 267.9,1136.5 270.7,1137.1 273.6,1134.8 277.5,1131.4 279.8,1128.6 281.5,1126.3 282.0" style="fill:none;stroke:#068e12;stroke-width:2"/>
<polyline points="1143.8 265.1,1145.0 267.9,1146.1 272.4,1146.7 276.9,1147.2 286.0,1147.2 288.2,1146.7 293.3,1145.5 295.6,1145.5 296.7" style="fill:none;stroke:#068e12;stroke-width:2"/>
<polyline points="1147.8 266.2,1148.4 264.0,1151.2 263.4,1156.8 262.8,1160.2 263.4,1163.0 264.5,1164.7 266.8,1165.3 270.2,1163.6 273.6,1161.9 274.7,1156.3 277.5" style="fill:none;stroke:#068e12;stroke-width:2"/>
<polyline points="1187.9 262.3,1186.7 265.1,1186.7 269.6,1187.3 278.1,1187.9 278.6" style="fill:none;stroke:#068e12;stroke-width:2"/>
<polyline points="1196.3 261.7,1197.5 264.5,1197.5 266.8,1198.0 275.8,1199.2 273.0,1200.9 267.9,1203.1 262.8,1204.8 261.7,1207.6 264.5,1208.8 267.9,1209.3 274.7,1208.8 277.5" style="fill:none;stroke:#068e12;stroke-width:2"/>
<polyline points="1231.9 252.7,1232.5 250.4,1231.9 248.2,1230.2 246.5,1228.5 245.3,1225.7 244.2,1220.0 243.6,1218.4 245.9,1217.8 248.2,1217.2 254.4,1218.4 262.8,1220.6 274.7,1222.3 281.5,1223.4 284.8,1225.7 290.5,1226.8 292.7,1227.9 295.6,1229.1 297.3,1229.6 296.1" style="fill:none;stroke:#068e12;stroke-width:2"/>
<polyline points="1226.3 268.5,1222.9 269.0,1219.5 269.0,1215.5 268.5,1214.4 267.9" style="fill:none;stroke:#068e12;stroke-width:2"/>
<polyline points="1246.0 266.8,1244.3 265.6,1241.5 265.6,1238.1 266.8,1234.7 268.5,1233.0 271.9,1233.0 274.7,1234.7 277.5,1238.1 278.6,1242.1 279.2,1246.0 278.1,1250.0 275.8,1252.2 273.0,1253.4 270.2,1253.4 267.9,1251.7 266.8,1250.5 266.8" style="fill:none;stroke:#068e12;stroke-width:2"/>
<polyline points="1268.0 239.1,1269.7 243.1,1270.3 248.2,1270.8 252.1,1271.4 260.6,1272.0 265.1,1272.0 273.6,1270.8 281.5,1269.7 287.7,1268.6 292.7,1268.0 294.4" style="fill:none;stroke:#068e12;stroke-width:2"/>
<polyline points="1266.9 301.8,1264.1 301.2,1261.8 301.2,1256.7 301.8,1253.4 302.3,1243.2 303.5,1237.0 304.0,1233.0 304.6,1220.6 305.7,1215.5 305.7,1211.0 306.3,1200.3 306.9,1189.6 308.0,1183.9 308.0,1165.3 309.1,1158.5 309.1,1152.3 309.7,1139.9 309.7,1127.5 310.2,1116.7 310.2,1107.2 310.8,1095.9 310.8,1091.3 310.8" style="fill:none;stroke:#068e12;stroke-width:2"/>
<polyline points="1268.6 231.2,1266.3 230.7,1263.5 230.1,1261.3 230.1,1255.6 230.7,1253.4 231.2,1247.1 231.8,1243.8 231.8,1240.4 232.3,1231.9 232.3,1222.3 232.9,1211.0 232.9,1198.0 233.5,1184.5 233.5,1177.7 232.9,1170.4 232.9,1143.8 233.5,1137.6 233.5,1121.8 234.0,1113.4 234.6,1109.4 235.2,1105.5 235.2,1097.0 235.7,1094.7 235.7" style="fill:none;stroke:#068e12;stroke-width:2"/>
<polyline points="1086.3 235.7,1085.1 238.0,1084.6 241.4,1083.4 245.3,1083.4 247.6,1082.3 253.2,1081.8 258.9,1081.2 261.7,1080.6 267.3,1078.9 278.1,1078.9 280.3,1079.5 305.2" style="fill:none;stroke:#068e12;stroke-width:2"/>
<polyline points="1088.5 312.5,1090.8 311.4,1093.0 309.7,1090.8 309.7,1081.8 309.1,1080.6 308.0" style="fill:none;stroke:#068e12;stroke-width:2"/>
<polyline points="1088.0 236.9,1090.8 235.7,1093.0 235.7,1095.3 235.2,1098.7 235.2,1101.5 234.6,1106.0 234.0,1111.1 234.0,1120.7 233.5,1123.0 233.5,1135.9 232.9,1139.9 232.9,1148.9 232.3,1152.9 232.3,1162.5 231.8,1167.6 231.8,1186.2 231.2,1190.1 231.2,1193.5 230.7,1195.8 230.7,1206.5 230.1,1210.5 230.1,1215.0 229.5,1219.5 229.5,1250.0 229.0,1252.2 229.0,1256.7 228.4,1259.0 228.4,1261.3 227.8,1262.9 229.5,1264.1 231.2,1265.8 232.9,1268.0 236.3,1268.6 239.1,1269.2 241.4,1268.6 244.2,1269.2 246.5,1270.3 248.7,1270.8 253.2,1271.4 256.6,1270.8 260.6,1270.8 262.8,1269.7 265.1,1269.2 267.9,1269.2 270.7,1269.7 273.6,1269.7 276.4,1269.2 284.3,1269.7 287.7,1270.8 290.5,1270.8 292.7,1270.3 295.6,1269.2 297.3,1267.5 300.1,1264.6 301.2,1262.9 302.3,1258.4 302.9,1252.2 302.3" style="fill:none;stroke:#068e12;stroke-width:2"/>
<polyline points="1224.6 357.1,1224.0 354.8,1221.7 354.8,1221.2 357.7,1221.2 359.9,1221.7 363.9,1223.4 367.8,1225.7 373.5,1229.6 376.3,1233.0 376.3,1235.9 374.6,1237.5 373.5,1239.8 370.6,1241.5 368.4,1242.1 367.3" style="fill:none;stroke:#068e12;stroke-width:2"/>
<polyline points="1238.7 356.5,1239.2 359.9,1240.9 365.0,1241.5 368.9,1241.5 371.2,1242.1 374.0,1242.6 376.3,1244.9 365.0,1246.0 357.1,1246.6 354.3,1249.4 353.1,1251.7 355.4,1253.9 359.4,1255.6 363.3,1255.6 365.6,1255.0 373.5,1253.9 375.2" style="fill:none;stroke:#068e12;stroke-width:2"/>
<polyline points="1273.1 350.3,1270.3 351.4,1267.5 353.1,1265.8 354.3,1266.3 357.7,1270.3 360.5,1275.4 363.3,1278.8 366.7,1279.3 368.9,1278.2 371.2,1275.9 372.9,1272.0 374.0,1268.0 374.6,1264.6 374.0" style="fill:none;stroke:#068e12;stroke-width:2"/>
<polyline points="1285.0 337.3,1285.0 343.0,1286.1 351.4,1286.7 354.8,1288.9 365.0,1289.5 370.6,1290.0 372.9,1290.6 377.4,1291.2 378.5" style="fill:none;stroke:#068e12;stroke-width:2"/>
<polyline points="1296.8 354.8,1293.4 356.5,1291.2 357.1,1288.3 358.2,1286.1 358.2,1284.4 358.2" style="fill:none;stroke:#068e12;stroke-width:2"/>
<polyline points="1304.2 357.1,1308.7 357.1,1304.2 358.8,1300.2 361.0,1296.3 367.3,1295.7 370.1,1297.9 372.3,1302.5 372.9,1306.4 371.2,1310.9 367.8,1314.3 359.9,1313.7 355.4,1312.1 356.5,1312.1 361.6,1312.6 366.7,1313.2 370.1,1314.3 371.8,1316.0 373.5,1318.3 374.6,1319.4 374.6" style="fill:none;stroke:#068e12;stroke-width:2"/>
<polyline points="1318.3 354.3,1318.8 357.7,1320.0 360.5,1321.7 368.4,1322.8 372.3,1323.3 374.6,1323.9 368.9,1324.5 366.7,1324.5 363.9,1325.0 356.5,1326.2 353.1,1327.9 351.4,1329.0 353.1,1330.7 359.4,1331.8 364.4,1332.4 368.9,1332.4 373.5,1332.9 376.9" style="fill:none;stroke:#068e12;stroke-width:2"/>
<polyline points="1344.8 349.8,1343.7 351.4,1338.6 361.6,1338.0 364.4,1339.2 368.4,1340.8 370.1,1343.1 371.8,1346.5 372.3,1352.7 370.6,1356.6 367.3,1357.8 361.6,1357.2 357.7,1356.1 356.0,1354.4 353.7,1351.0 354.3,1349.3 356.5,1348.2 359.9,1349.3 365.6,1351.6 368.9,1356.1 372.9,1362.3 374.6,1367.4 372.9" style="fill:none;stroke:#068e12;stroke-width:2"/>
<polyline points="1381.5 348.1,1379.2 348.6,1379.8 352.0,1381.5 357.1,1382.6 362.2,1383.2 365.0,1384.3 369.5,1384.9 374.0,1385.4 376.9,1386.0 378.0" style="fill:none;stroke:#068e12;stroke-width:2"/>
<polyline points="1390.0 348.6,1391.1 350.9,1391.6 353.7,1392.2 357.7,1392.8 362.2,1393.3 366.1,1395.0 372.3,1397.9 372.3,1399.0 368.4,1399.5 363.3,1399.5 361.0,1400.1 352.6,1402.4 354.3,1404.6 363.3,1405.8 368.9,1406.9 373.5,1407.5 376.9" style="fill:none;stroke:#068e12;stroke-width:2"/>
<polyline points="1417.0 336.2,1418.7 334.5,1419.3 331.7,1418.2 328.3,1414.2 325.5,1411.4 325.5,1409.7 326.6,1407.5 330.0,1406.3 332.3,1405.2 337.3,1405.2 340.7,1405.8 348.1,1406.9 355.4,1409.1 362.7,1414.2 376.9,1416.5 382.5,1418.2 386.4,1418.7 389.8,1417.6 391.0" style="fill:none;stroke:#068e12;stroke-width:2"/>
<polyline points="1419.3 358.8,1415.9 359.4,1413.7 359.4,1410.8 360.5,1409.1 362.2,1409.1 363.9" style="fill:none;stroke:#068e12;stroke-width:2"/>
<polyline points="1431.2 359.9,1429.5 357.7,1427.2 357.7,1422.7 363.9,1425.5 370.1,1430.0 372.9,1433.4 372.9,1437.9 371.2,1439.6 368.4,1439.6 364.4,1437.4 359.4,1434.0 357.1,1432.3 356.5" style="fill:none;stroke:#068e12;stroke-width:2"/>
<polyline points="1446.4 321.5,1447.5 319.8,1448.7 322.1,1448.7 324.9,1449.2 327.7,1449.8 331.7,1450.4 335.1,1450.9 337.3,1451.5 341.9,1451.5 344.7,1450.9 358.8,1450.9 364.4,1450.4 384.2,1449.8 387.6,1449.2 391.5,1448.1 394.3,1446.4 397.7,1444.7 398.9,1441.9 400.0,1439.6 400.6,1436.8 401.1,1433.4 401.7,1429.5 402.3,1424.4 402.3,1418.7 402.8,1412.5 402.8,1405.8 403.4,1402.4 403.9,1394.5 405.1,1386.0 405.6,1382.1 405.6,1372.5 406.2,1362.9 406.2,1353.8 406.8,1349.9 406.8,1329.0 407.3,1321.1 406.8,1317.1 406.8,1313.2 406.2,1305.8 405.6,1290.6 403.9,1286.7 403.4,1274.2 402.3,1266.3 401.7,1255.6 401.1,1252.2 401.1,1224.6 401.7,1221.7 401.7,1218.9 402.3,1216.1 402.3,1213.8 401.7,1210.5 400.6,1208.2 400.0,1209.3 398.3,1209.3 395.5,1208.8 392.7,1208.2 390.4,1207.6 386.4,1205.9 380.8,1205.4 376.3,1204.2 365.0,1204.2 362.7,1204.8 358.8,1205.9 354.8,1207.1 349.2,1207.6 342.4,1207.6 339.0,1207.1 332.3,1207.1 330.0,1210.5 328.9,1213.3 327.7,1216.7 327.2,1219.5 326.0,1222.3 325.5,1226.3 324.4,1230.2 323.8,1234.7 323.2,1237.0 322.7,1244.9 321.5,1251.1 320.4,1268.6 317.6,1272.5 317.0,1300.8 311.9,1317.1 309.7,1320.5 309.1,1327.3 309.1,1333.5 308.5,1339.7 308.5,1362.9 309.1,1368.5 309.1,1374.7 309.7,1380.4 309.7,1399.5 310.2,1404.1 310.2,1409.1 310.8,1441.3 315.3,1444.7 315.9,1447.5 316.5,1452.0 317.0,1454.3 317.6" style="fill:none;stroke:#068e12;stroke-width:2"/>
<polyline points="1383.7 307.4,1382.6 305.2,1382.6 302.9,1381.5 301.2,1380.4 299.0,1379.8 296.7,1378.7 295.0,1377.0 293.9,1375.8 294.4" style="fill:none;stroke:#068e12;stroke-width:2"/>
<polyline points="1371.3 287.7,1370.2 285.4,1368.5 284.3,1366.8 282.6,1364.6 280.9,1362.9 279.2" style="fill:none;stroke:#068e12;stroke-width:2"/>
<polyline points="1353.3 275.8,1351.6 274.7,1349.3 273.6,1347.1 271.9" style="fill:none;stroke:#068e12;stroke-width:2"/>
<polyline points="1335.8 267.3,1334.1 266.2,1331.8 265.6,1328.4 265.1" style="fill:none;stroke:#068e12;stroke-width:2"/>
<polyline points="1319.4 261.7,1315.4 261.1,1313.2 260.6,1309.2 260.0" style="fill:none;stroke:#068e12;stroke-width:2"/>
<polyline points="1299.6 260.6,1295.1 260.0,1292.3 258.9,1290.0 257.7" style="fill:none;stroke:#068e12;stroke-width:2"/>
<polyline points="1279.3 256.6,1277.6 255.5,1275.4 254.9,1272.5 254.9" style="fill:none;stroke:#068e12;stroke-width:2"/>
<polyline points="1273.1 256.6,1274.2 258.3,1275.9 260.6,1278.2 264.0,1278.8 264.5" style="fill:none;stroke:#068e12;stroke-width:2"/>
<polyline points="1273.1 253.2,1275.4 253.2,1277.6 252.1,1279.9 250.4" style="fill:none;stroke:#068e12;stroke-width:2"/>
<polyline points="1077.2 452.5,1080.6 452.5,1084.6 451.9,1086.8 449.1,1086.8 445.2,1085.7 443.5,1084.0 442.3,1080.6 445.2,1079.5 448.0,1078.9 450.8,1078.9 453.6,1080.1 455.9,1082.3 457.0,1085.1 457.6,1089.1 457.0,1091.9 455.3" style="fill:none;stroke:#068e12;stroke-width:2"/>
<polyline points="1094.2 441.8,1095.9 445.7,1097.0 448.0,1097.6 450.2,1097.6 453.1,1098.1 449.7,1099.2 446.8,1099.8 444.0,1101.5 441.2,1102.6 438.9,1105.5 439.5,1107.7 442.9,1108.8 446.3,1109.4 449.1,1110.0 452.5,1110.5 454.7,1111.1 456.4" style="fill:none;stroke:#068e12;stroke-width:2"/>
<polyline points="1121.3 445.2,1119.6 444.0,1116.7 443.5,1112.2 442.9,1111.1 444.6,1111.1 446.8,1111.7 450.2,1113.9 454.2,1117.3 455.9,1119.6 455.9,1121.8 454.2,1123.0 451.9,1123.0 449.1,1124.1 444.6,1126.3 448.0,1129.2 450.8,1132.6 453.6" style="fill:none;stroke:#068e12;stroke-width:2"/>
<polyline points="1129.2 424.8,1130.9 428.2,1132.0 431.6,1133.1 433.9,1135.9 441.8,1137.1 444.0,1138.8 449.1,1139.9 451.4,1141.0 454.2,1141.0 451.9,1142.1 445.2,1145.0 442.3,1148.9 442.3,1152.9 445.2,1154.0 449.7,1153.4 452.5,1151.2 455.3,1148.4 457.6,1146.7 458.1" style="fill:none;stroke:#068e12;stroke-width:2"/>
<polyline points="1151.7 425.4,1153.4 427.7,1154.6 429.9,1155.7 433.3,1157.4 437.8,1159.1 442.9,1159.6 445.7,1161.3 450.2,1162.5 453.6,1163.6 455.9" style="fill:none;stroke:#068e12;stroke-width:2"/>
<polyline points="1166.4 450.8,1170.4 449.1,1172.6 445.2,1172.6 442.3,1169.8 442.3,1169.2 444.6,1168.7 447.4,1168.7 451.4,1171.5 453.6,1178.3 454.7" style="fill:none;stroke:#068e12;stroke-width:2"/>
<polyline points="1190.7 443.5,1188.4 442.3,1186.7 443.5,1185.6 446.8,1184.5 450.8,1185.0 453.6,1186.7 454.7,1189.0 455.3,1193.0 454.7,1195.2 453.1,1196.3 447.4,1195.2 441.2,1193.0 435.0,1191.8 432.2,1188.4 427.1,1183.9 423.1,1182.2 425.4,1183.9 429.9,1187.9 435.6,1191.8 441.8,1196.9 447.4,1201.4 451.9,1205.9 455.3,1209.3 457.0" style="fill:none;stroke:#068e12;stroke-width:2"/>
<polyline points="1231.9 428.2,1230.8 426.0,1231.3 431.6,1231.9 433.9,1233.6 442.3,1234.7 447.4,1235.3 449.7,1235.9 453.6,1236.4 454.7" style="fill:none;stroke:#068e12;stroke-width:2"/>
<polyline points="1250.5 438.9,1247.7 441.8,1245.4 445.2,1244.3 448.5,1244.9 453.6,1246.6 455.3,1248.8 455.3,1251.7 454.7,1255.0 450.8,1256.2 447.4,1256.7 442.3,1256.7 440.1,1255.6 441.8,1256.2 444.6,1257.3 447.4,1260.1 451.4,1262.9 452.5,1264.6 452.5" style="fill:none;stroke:#068e12;stroke-width:2"/>
<polyline points="1264.6 438.4,1262.9 440.1,1264.1 443.5,1265.2 446.3,1267.5 449.1,1269.7 448.5,1270.3 445.2,1270.3 441.8,1269.7 435.0,1272.5 440.1,1274.2 442.9,1279.9 453.1,1283.8 459.8,1285.0 463.2,1286.7 466.6,1287.8 471.7,1286.7 475.6,1283.8 477.9,1281.6 477.9,1273.1 475.6,1270.3 473.9" style="fill:none;stroke:#068e12;stroke-width:2"/>
<polyline points="1282.7 446.8,1285.5 444.0,1286.7 441.8,1286.7 437.2,1286.1 434.4,1283.8 432.2,1281.6 432.2,1280.4 435.0,1280.4 441.2,1281.0 443.5,1283.3 448.5,1286.1 451.4,1290.6 452.5,1296.8 450.2" style="fill:none;stroke:#068e12;stroke-width:2"/>
<polyline points="1294.6 433.9,1296.8 438.4,1297.9 441.8,1299.6 445.7,1300.8 449.1,1299.1 446.3,1297.9 442.3,1297.9 438.9,1299.1 434.4,1300.8 433.3,1303.6 434.4,1307.5 436.7,1309.8 437.8,1310.4 438.4" style="fill:none;stroke:#068e12;stroke-width:2"/>
<polyline points="1326.2 430.5,1323.9 431.6,1320.0 433.9,1317.7 435.6,1315.4 437.8,1314.9 440.6,1316.6 441.8,1319.4 443.5,1323.3 445.2,1326.7 447.4,1331.2 453.1,1330.7 455.9,1327.9 459.3,1323.3 461.5,1320.5 462.7" style="fill:none;stroke:#068e12;stroke-width:2"/>
<polyline points="1338.6 422.0,1336.3 420.9,1332.9 420.3,1330.7 420.3,1317.1 420.9,1310.4 421.4,1304.7 421.4,1282.7 420.9,1274.8 420.3,1270.8 419.8,1263.5 419.2,1256.2 418.1,1248.3 417.5,1244.9 417.5,1240.9 416.9,1233.6 416.9,1219.5 416.4,1216.1 416.4,1212.7 415.8,1205.9 415.2,1185.0 414.1,1181.7 413.5,1174.3 413.0,1170.9 413.0,1164.2 412.4,1156.8 412.4,1081.8 414.1,1078.9 414.7,1075.5 415.2,1073.8 416.4,1072.2 418.6,1071.0 421.4,1069.9 425.4,1069.9 427.7,1069.3 431.0,1068.8 433.3,1068.8 437.2,1068.2 439.5,1068.2 441.8,1067.6 444.6,1066.5 448.0,1065.9 450.2,1065.4 453.1,1064.8 457.0,1064.8 461.0,1065.4 463.8,1066.5 466.0,1067.1 468.3,1068.2 472.2,1069.9 476.8,1071.6 479.0,1073.3 480.1,1076.1 480.7,1080.6 481.3,1084.6 481.8,1089.1 481.8,1091.9 482.4,1097.6 482.4,1124.1 483.0,1128.0 483.0,1152.9 483.5,1161.3 483.5,1177.7 484.1,1186.2 484.1,1194.1 484.7,1219.5 485.8,1227.4 485.8,1246.6 485.2,1253.9 484.7,1257.3 484.7,1263.5 484.1,1275.4 484.1,1289.5 484.7,1297.9 484.7,1321.1 484.1,1323.9 484.1,1349.9 484.7,1351.0 481.8,1351.6 479.0,1352.7 476.8,1353.3 474.5,1354.4 472.2,1355.5 468.9,1355.5 466.0,1356.1 461.5,1355.5 457.0,1355.5 454.2,1355.0 449.7,1353.8 445.2,1352.7 442.3,1352.1 440.1,1351.6 436.1,1351.6 433.9,1351.0 428.8,1348.2 428.2,1344.8 427.7,1340.8 426.5,1336.9 426.0,1332.9 426.0,1326.7 425.4,1324.5 425.4,1320.5 425.4" style="fill:none;stroke:#068e12;stroke-width:2"/>
<polyline points="1203.7 347.5,1198.0 348.1,1195.2 348.1,1193.0 348.1" style="fill:none;stroke:#068e12;stroke-width:2"/>
<polyline points="1177.1 350.3,1174.9 350.9,1164.7 353.7" style="fill:none;stroke:#068e12;stroke-width:2"/>
<polyline points="1153.4 362.7,1150.6 363.9,1148.4 365.6,1146.7 367.3,1145.0 368.4,1143.8 370.1" style="fill:none;stroke:#068e12;stroke-width:2"/>
<polyline points="1132.0 385.3,1130.3 386.4,1128.6 389.8,1126.9 392.1,1126.3 393.2" style="fill:none;stroke:#068e12;stroke-width:2"/>
<polyline points="1120.7 400.6,1118.4 401.7,1116.7 402.8,1115.6 404.5" style="fill:none;stroke:#068e12;stroke-width:2"/>
<polyline points="1109.4 410.7,1110.5 408.5,1109.4 406.2,1108.8 403.4,1108.8 400.0" style="fill:none;stroke:#068e12;stroke-width:2"/>
<polyline points="1113.9 412.4,1116.7 411.8,1121.8 411.3,1125.8 410.7" style="fill:none;stroke:#068e12;stroke-width:2"/>
<polyline points="1123.0 407.3,1119.6 407.9,1116.2 409.6,1115.1 410.2" style="fill:none;stroke:#068e12;stroke-width:2"/>
</svg>